<svg version="1.2" preserveAspectRatio="xMidYMid meet" viewBox="24.75 96.74999767800001 345 206.24999505000002" zoomAndPan="magnify" xmlns:xlink="http://www.w3.org/1999/xlink" xmlns="http://www.w3.org/2000/svg" style="max-height: 500px" width="345" height="206.24999505000002"><defs><clipPath id="922ac465e8"><rect height="74" y="0" width="179" x="0"/></clipPath></defs><g id="bc4255196c"><path d="M 65.335938 197.945312 C 65.335938 164.371094 92.550781 137.15625 126.125 137.15625 C 149.808594 137.15625 170.328125 150.699219 180.363281 170.460938 C 180.507812 168.191406 180.589844 165.902344 180.589844 163.59375 C 180.589844 154.460938 179.414062 145.601562 177.210938 137.15625 L 151.367188 111.308594 C 137.203125 97.144531 114.234375 97.144531 100.070312 111.308594 L 38.636719 172.746094 C 24.472656 186.910156 24.472656 209.875 38.636719 224.042969 L 82.425781 267.828125 C 95.75 267.042969 108.402344 263.746094 119.921875 258.421875 C 89.261719 255.316406 65.335938 229.425781 65.335938 197.945312 Z M 65.335938 197.945312" style="stroke:none;fill-rule:nonzero;fill:#8859a4;fill-opacity:0.79;"/><path d="M 112.910156 218.214844 L 139.90625 218.214844 C 139.90625 221.65625 140.425781 224.972656 141.378906 228.101562 C 152.378906 222.523438 159.921875 211.117188 159.921875 197.945312 C 159.921875 179.28125 144.789062 164.152344 126.125 164.152344 C 107.460938 164.152344 92.328125 179.28125 92.328125 197.945312 C 92.328125 212.324219 101.3125 224.59375 113.964844 229.480469 C 113.28125 225.828125 112.910156 222.0625 112.910156 218.214844 Z M 112.910156 218.214844" style="stroke:none;fill-rule:nonzero;fill:#8859a4;fill-opacity:0.79;"/><path d="M 126.125 137.15625 C 159.699219 137.15625 186.917969 164.371094 186.917969 197.945312 C 186.917969 200.824219 186.710938 203.652344 186.324219 206.425781 C 199.726562 204.074219 212.082031 198.691406 222.660156 191.007812 C 221.277344 184.316406 217.996094 177.9375 212.800781 172.746094 L 151.367188 111.308594 C 137.203125 97.144531 114.234375 97.144531 100.070312 111.308594 L 83.390625 127.988281 C 84.109375 135.742188 85.839844 143.203125 88.441406 150.242188 C 98.800781 142.050781 111.890625 137.15625 126.125 137.15625 Z M 126.125 137.15625" style="stroke:none;fill-rule:nonzero;fill:#ba3a94;fill-opacity:0.79;"/><path d="M 126.125 164.152344 C 116.65625 164.152344 108.105469 168.046875 101.96875 174.320312 C 115.683594 191.652344 135.78125 203.695312 158.714844 206.902344 C 159.496094 204.050781 159.921875 201.046875 159.921875 197.945312 C 159.921875 179.28125 144.789062 164.152344 126.125 164.152344 Z M 126.125 164.152344" style="stroke:none;fill-rule:nonzero;fill:#ba3a94;fill-opacity:0.79;"/><path d="M 112.910156 218.214844 L 139.90625 218.214844 C 139.90625 221.65625 140.425781 224.972656 141.378906 228.101562 C 152.378906 222.523438 159.921875 211.117188 159.921875 197.945312 C 159.921875 179.28125 144.789062 164.152344 126.125 164.152344 C 107.460938 164.152344 92.328125 179.28125 92.328125 197.945312 C 92.328125 212.324219 101.3125 224.59375 113.964844 229.480469 C 113.28125 225.828125 112.910156 222.0625 112.910156 218.214844 Z M 112.910156 218.214844" style="stroke:none;fill-rule:nonzero;fill:#c82370;fill-opacity:0.79;"/><path d="M 212.804688 172.746094 L 175.847656 135.792969 C 175.75 135.792969 175.65625 135.789062 175.558594 135.789062 C 165.140625 135.789062 155.097656 137.394531 145.660156 140.363281 C 169.652344 148.5 186.917969 171.207031 186.917969 197.945312 C 186.917969 219.238281 175.96875 237.972656 159.390625 248.832031 C 163.738281 250.867188 168.585938 252.007812 173.703125 252.007812 C 178.816406 252.007812 183.660156 250.871094 188.003906 248.839844 L 212.800781 224.042969 C 226.96875 209.875 226.96875 186.910156 212.804688 172.746094 Z M 212.804688 172.746094" style="stroke:none;fill-rule:nonzero;fill:#c82370;fill-opacity:0.79;"/><path d="M 159.511719 277.332031 C 147.269531 274.40625 136.480469 267.769531 128.367188 258.691406 C 127.621094 258.714844 126.878906 258.738281 126.125 258.738281 C 105.394531 258.738281 87.089844 248.359375 76.117188 232.515625 C 76.09375 233.429688 76.082031 234.34375 76.082031 235.265625 C 76.082031 246.171875 77.84375 256.667969 81.085938 266.488281 L 100.070312 285.472656 C 114.234375 299.636719 137.199219 299.636719 151.367188 285.472656 Z M 159.511719 277.332031" style="stroke:none;fill-rule:nonzero;fill:#c82370;fill-opacity:0.79;"/><path d="M 168.75 251.644531 C 179.960938 240.617188 186.917969 225.273438 186.917969 208.304688 C 186.917969 206.558594 186.84375 204.832031 186.699219 203.125 C 185.082031 222.253906 174.609375 238.863281 159.398438 248.832031 C 162.3125 250.195312 165.453125 251.160156 168.75 251.644531 Z M 168.75 251.644531" style="stroke:none;fill-rule:nonzero;fill:#4a4949;fill-opacity:0.24;"/><path d="M 128.367188 258.695312 C 127.621094 258.722656 126.878906 258.738281 126.125 258.738281 C 94.308594 258.738281 68.207031 234.300781 65.558594 203.167969 C 65.417969 204.863281 65.332031 206.578125 65.332031 208.308594 C 65.332031 241.882812 92.546875 269.097656 126.121094 269.097656 C 130.386719 269.097656 134.550781 268.65625 138.570312 267.820312 C 134.832031 265.167969 131.414062 262.101562 128.367188 258.695312 Z M 128.367188 258.695312" style="stroke:none;fill-rule:nonzero;fill:#4a4949;fill-opacity:0.24;"/><path d="M 126.125 164.152344 C 107.460938 164.152344 92.328125 179.28125 92.328125 197.945312 C 92.328125 199.707031 92.464844 201.4375 92.726562 203.125 C 95.21875 186.917969 109.222656 174.507812 126.125 174.507812 C 143.03125 174.507812 157.035156 186.917969 159.523438 203.125 C 159.785156 201.4375 159.921875 199.707031 159.921875 197.945312 C 159.921875 179.28125 144.789062 164.152344 126.125 164.152344 Z M 126.125 164.152344" style="stroke:none;fill-rule:nonzero;fill:#4a4949;fill-opacity:0.24;"/><path d="M 159.511719 277.332031 C 135.285156 271.539062 116.695312 251.242188 113.425781 226.132812 L 112.914062 226.132812 C 112.914062 252.585938 129.808594 275.085938 153.398438 283.445312 Z M 159.511719 277.332031" style="stroke:none;fill-rule:nonzero;fill:#4a4949;fill-opacity:0.24;"/><g transform="matrix(1,0,0,1,188,222)"><g clip-path="url(#922ac465e8)"><g style="fill:#c82370;fill-opacity:1;"><g transform="translate(1.373208, 57.156136)"><path d="M 27.578125 0 L 25.6875 -7.15625 L 13.28125 -7.15625 L 11.34375 0 L 0 0 L 12.46875 -38.375 L 26.25 -38.375 L 38.875 0 Z M 23.546875 -15.625 L 21.90625 -21.90625 C 21.726562 -22.582031 21.472656 -23.550781 21.140625 -24.8125 C 20.816406 -26.082031 20.492188 -27.390625 20.171875 -28.734375 C 19.847656 -30.085938 19.597656 -31.203125 19.421875 -32.078125 C 19.265625 -31.203125 19.039062 -30.125 18.75 -28.84375 C 18.46875 -27.5625 18.171875 -26.289062 17.859375 -25.03125 C 17.554688 -23.78125 17.289062 -22.738281 17.0625 -21.90625 L 15.421875 -15.625 Z M 23.546875 -15.625" style="stroke:none"/></g></g><g style="fill:#c82370;fill-opacity:1;"><g transform="translate(40.232317, 57.156136)"><path d="M 12.734375 0.515625 C 9.679688 0.515625 7.171875 -0.78125 5.203125 -3.375 C 3.234375 -5.96875 2.25 -9.765625 2.25 -14.765625 C 2.25 -19.816406 3.257812 -23.640625 5.28125 -26.234375 C 7.300781 -28.835938 9.914062 -30.140625 13.125 -30.140625 C 14.445312 -30.140625 15.585938 -29.945312 16.546875 -29.5625 C 17.503906 -29.175781 18.332031 -28.65625 19.03125 -28 C 19.738281 -27.351562 20.359375 -26.617188 20.890625 -25.796875 L 21.09375 -25.796875 C 20.96875 -26.546875 20.851562 -27.578125 20.75 -28.890625 C 20.644531 -30.210938 20.59375 -31.5 20.59375 -32.75 L 20.59375 -40.671875 L 30.890625 -40.671875 L 30.890625 0 L 23.1875 0 L 20.984375 -3.734375 L 20.59375 -3.734375 C 20.125 -2.953125 19.535156 -2.238281 18.828125 -1.59375 C 18.128906 -0.945312 17.273438 -0.429688 16.265625 -0.046875 C 15.265625 0.328125 14.085938 0.515625 12.734375 0.515625 Z M 16.90625 -7.546875 C 18.550781 -7.546875 19.707031 -8.066406 20.375 -9.109375 C 21.039062 -10.148438 21.398438 -11.734375 21.453125 -13.859375 L 21.453125 -14.65625 C 21.453125 -17 21.125 -18.789062 20.46875 -20.03125 C 19.820312 -21.28125 18.601562 -21.90625 16.8125 -21.90625 C 15.59375 -21.90625 14.582031 -21.3125 13.78125 -20.125 C 12.976562 -18.9375 12.578125 -17.097656 12.578125 -14.609375 C 12.578125 -12.148438 12.976562 -10.359375 13.78125 -9.234375 C 14.59375 -8.109375 15.632812 -7.546875 16.90625 -7.546875 Z M 16.90625 -7.546875" style="stroke:none"/></g></g><g style="fill:#c82370;fill-opacity:1;"><g transform="translate(74.648892, 57.156136)"><path d="M 20.78125 0 L 12.96875 -27.53125 L 12.734375 -27.53125 C 12.796875 -26.8125 12.863281 -25.84375 12.9375 -24.625 C 13.019531 -23.40625 13.097656 -22.085938 13.171875 -20.671875 C 13.242188 -19.265625 13.28125 -17.90625 13.28125 -16.59375 L 13.28125 0 L 4.125 0 L 4.125 -38.21875 L 17.875 -38.21875 L 25.84375 -11.078125 L 26.0625 -11.078125 L 33.875 -38.21875 L 47.65625 -38.21875 L 47.65625 0 L 38.15625 0 L 38.15625 -16.75 C 38.15625 -17.957031 38.175781 -19.253906 38.21875 -20.640625 C 38.269531 -22.023438 38.320312 -23.332031 38.375 -24.5625 C 38.4375 -25.789062 38.492188 -26.757812 38.546875 -27.46875 L 38.3125 -27.46875 L 30.609375 0 Z M 20.78125 0" style="stroke:none"/></g></g><g style="fill:#c82370;fill-opacity:1;"><g transform="translate(126.391352, 57.156136)"><path d="M 13.796875 -29.609375 L 13.796875 0 L 3.578125 0 L 3.578125 -29.609375 Z M 8.734375 -41.53125 C 10.191406 -41.53125 11.460938 -41.222656 12.546875 -40.609375 C 13.640625 -40.003906 14.1875 -38.796875 14.1875 -36.984375 C 14.1875 -35.222656 13.640625 -34.03125 12.546875 -33.40625 C 11.460938 -32.789062 10.191406 -32.484375 8.734375 -32.484375 C 7.234375 -32.484375 5.953125 -32.789062 4.890625 -33.40625 C 3.835938 -34.03125 3.3125 -35.222656 3.3125 -36.984375 C 3.3125 -38.796875 3.835938 -40.003906 4.890625 -40.609375 C 5.953125 -41.222656 7.234375 -41.53125 8.734375 -41.53125 Z M 8.734375 -41.53125" style="stroke:none"/></g></g><g style="fill:#c82370;fill-opacity:1;"><g transform="translate(143.795634, 57.156136)"><path d="M 9.796875 -15.109375 L 0.765625 -29.609375 L 12.359375 -29.609375 L 16.859375 -21.296875 L 21.453125 -29.609375 L 33.09375 -29.609375 L 23.8125 -15.109375 L 33.453125 0 L 21.859375 0 L 16.859375 -8.984375 L 11.890625 0 L 0.265625 0 Z M 9.796875 -15.109375" style="stroke:none"/></g></g></g></g></g></svg>